<svg xmlns="http://www.w3.org/2000/svg" width="519" height="519" viewBox="0 0 519 519" id="wow-emoji">
  <defs>
    <linearGradient id="c" x1="50%" x2="50%" y1="0%" y2="100%">
      <stop offset="0%" stop-color="#EEB643"></stop>
      <stop offset="100%" stop-color="#FCE486"></stop>
    </linearGradient>
    <linearGradient id="d" x1="50%" x2="50%" y1="0%" y2="100%">
      <stop offset="0%"></stop>
      <stop offset="100%" stop-color="#887133"></stop>
    </linearGradient>
    <linearGradient id="e" x1="53.416%" x2="46.584%" y1=".373%" y2="99.627%">
      <stop offset="0%" stop-color="#251C0C"></stop>
      <stop offset="100%"></stop>
    </linearGradient>
    <radialGradient id="a" cx="50%" cy="18.4%" r="59.676%" fx="50%" fy="18.4%">
      <stop offset="0%" stop-color="#FDE990"></stop>
      <stop offset="100%" stop-color="#FACE57"></stop>
    </radialGradient>
    <radialGradient id="b" cx="50%" cy="44.771%" r="49.968%" fx="50%" fy="44.771%" gradientTransform="rotate(-88.88 .495 .453)scale(1 1.02299)">
      <stop offset="0%" stop-color="#D27C12" stop-opacity=".186"></stop>
      <stop offset="85.631%" stop-color="#D27C12" stop-opacity="0"></stop>
      <stop offset="100%" stop-color="#D27C12" stop-opacity=".325"></stop>
    </radialGradient>
  </defs>
  <g fill="none" fill-rule="evenodd">
    <circle cx="259.5" cy="259.5" r="259.5" fill="url(#a)"></circle>
    <circle cx="259.5" cy="259.5" r="259.5" fill="url(#b)"></circle>
    <ellipse cx="267.5" cy="363.75" fill="url(#c)" opacity=".88" rx="83.5" ry="107.25"></ellipse>
    <ellipse cx="267.5" cy="363" fill="url(#d)" opacity=".88" rx="78.5" ry="103"></ellipse>
    <path fill="url(#e)" d="M151.90429 228.871037C167.706009 231.063437 185.289662 204.97601 188.492544 175.5 191.695426 146.02399 179.30467 124.321362 163.50295 122.128963 147.701231 119.936563 126.617943 146.02399 123.415061 175.5 120.21218 204.97601 136.102571 226.678638 151.90429 228.871037zM382.09571 228.871037C366.293991 231.063437 348.710338 204.97601 345.507456 175.5 342.304574 146.02399 354.69533 124.321362 370.49705 122.128963 386.298769 119.936563 407.382057 146.02399 410.584939 175.5 413.78782 204.97601 397.897429 226.678638 382.09571 228.871037z" opacity=".88"></path>
    <path fill="#251C0C" fill-rule="nonzero" d="M115.713211,54.4542242 C140.329049,24.4552822 170.679103,20.8369349 201.31227,44.3199213 C206.568689,48.3494234 207.552789,55.8634802 203.510319,61.1030368 C199.508273,66.2901979 192.080025,67.3034917 186.831562,63.413417 L186.673191,63.2940343 C166.366358,47.7270812 150.725947,49.5917381 134.300856,69.6087439 C130.102583,74.7251145 122.538225,75.4802975 117.405388,71.2954925 C112.272552,67.1106874 111.514938,59.5705948 115.713211,54.4542242 Z"></path>
    <path fill="#251C0C" fill-rule="nonzero" d="M331.713211,54.4542242 C356.329049,24.4552822 386.679103,20.8369349 417.31227,44.3199213 C422.568689,48.3494234 423.552789,55.8634802 419.510319,61.1030368 C415.508273,66.2901979 408.080025,67.3034917 402.831562,63.413417 L402.673191,63.2940343 C382.366358,47.7270812 366.725947,49.5917381 350.300856,69.6087439 C346.102583,74.7251145 338.538225,75.4802975 333.405388,71.2954925 C328.272552,67.1106874 327.514938,59.5705948 331.713211,54.4542242 Z" transform="matrix(-1 0 0 1 751 0)"></path>
  </g>
</svg>